<?xml version="1.0" encoding="UTF-8" standalone="no"?>
<!-- Created with Inkscape (http://www.inkscape.org/) -->

<svg
   width="512"
   height="512"
   viewBox="0 0 135.46666 135.46667"
   version="1.1"
   id="svg1"
   xml:space="preserve"
   inkscape:version="1.4 (86a8ad7, 2024-10-11)"
   sodipodi:docname="icon_immortality.svg"
   xmlns:inkscape="http://www.inkscape.org/namespaces/inkscape"
   xmlns:sodipodi="http://sodipodi.sourceforge.net/DTD/sodipodi-0.dtd"
   xmlns="http://www.w3.org/2000/svg"
   xmlns:svg="http://www.w3.org/2000/svg"><sodipodi:namedview
     id="namedview1"
     pagecolor="#ffffff"
     bordercolor="#000000"
     borderopacity="0.25"
     inkscape:showpageshadow="2"
     inkscape:pageopacity="0.0"
     inkscape:pagecheckerboard="0"
     inkscape:deskcolor="#d1d1d1"
     inkscape:document-units="mm"
     inkscape:zoom="1.1447461"
     inkscape:cx="396.5945"
     inkscape:cy="561.25984"
     inkscape:window-width="2560"
     inkscape:window-height="1529"
     inkscape:window-x="-8"
     inkscape:window-y="-8"
     inkscape:window-maximized="1"
     inkscape:current-layer="layer1" /><defs
     id="defs1" /><g
     inkscape:label="Layer 1"
     inkscape:groupmode="layer"
     id="layer1"><path
       style="fill:#000000"
       d="M 64.822913,134.37865 C 55.209296,129.14367 44.688013,121.22299 37.54615,113.84405 30.727414,106.79896 26.392607,99.851765 24.458285,92.868745 23.598602,89.765238 23.293573,84.206406 23.807908,81.016302 25.540538,70.269855 33.993047,61.70217 44.892803,59.644101 c 3.360356,-0.634495 8.386009,-0.405291 11.538608,0.52624 3.977592,1.1753 7.387123,2.993541 10.04591,5.357303 0.546123,0.485523 1.122224,0.882769 1.280226,0.882769 0.158002,0 0.874108,-0.513346 1.591347,-1.14077 3.038412,-2.657928 8.243245,-5.059253 12.407352,-5.724311 6.285614,-1.003888 13.172915,0.466837 18.413024,3.931945 6.19337,4.095474 10.34408,10.439865 11.49411,17.568839 0.5077,3.147188 0.19742,8.696563 -0.66102,11.822629 -3.35875,12.231045 -14.475888,24.824745 -32.302574,36.592985 -5.78353,3.81799 -9.779494,6.00592 -10.960369,6.00121 -0.584937,-0.002 -1.671253,-0.40621 -2.916504,-1.08429 z M 13.033739,93.172051 C 8.3927244,90.491497 6.545759,89.113334 4.8556856,87.069776 2.2312805,83.896466 0.63858945,79.827511 0.3562616,75.574795 0.01335852,70.409631 1.4564937,67.601038 4.4534054,67.601038 c 1.1984788,0 2.3531659,0.54128 6.9236776,3.245596 0.363802,0.215257 0.04215,-0.164798 -0.714776,-0.844566 C 7.83425,67.462298 5.4586664,63.578478 4.4414962,59.831721 3.6560042,56.938353 3.6309574,51.880107 4.3948338,50.408152 5.0991549,49.050958 6.026401,48.39022 7.4522344,48.229508 8.7142533,48.08726 9.5091391,48.360172 11.906249,49.758722 l 1.455209,0.849015 -1.621243,-1.699308 C 8.2380388,45.237618 6.8589371,40.127003 8.08928,35.378955 c 0.9691241,-3.739972 2.72222,-5.745623 5.022123,-5.745623 0.352847,0 2.517986,0.942854 4.811422,2.095232 8.866765,4.455264 15.39931,6.455581 25.556319,7.825546 4.932766,0.665326 8.043673,2.043079 10.897033,4.82606 1.788932,1.744807 2.921842,3.386169 3.868667,5.604932 1.143188,2.678915 1.136728,2.689307 -1.293284,2.080342 -3.013065,-0.755079 -9.184115,-0.932284 -12.757376,-0.366335 -7.207938,1.141626 -13.443685,4.327989 -18.678721,9.544516 -8.345917,8.316409 -11.669183,19.73271 -9.228111,31.701009 0.233904,1.1468 0.38564,2.122311 0.337192,2.167803 -0.04845,0.04549 -1.66431,-0.827682 -3.590805,-1.940386 z m 105.861711,1.268483 c 1.56013,-7.724686 1.33072,-14.024831 -0.73478,-20.177825 -2.72501,-8.117672 -9.26234,-15.588848 -17.04447,-19.479238 -2.549512,-1.274535 -6.773738,-2.598123 -9.843725,-3.084362 -3.588687,-0.568392 -9.742916,-0.388938 -12.784461,0.372788 l -2.077607,0.520317 0.161196,-0.805979 c 0.283076,-1.415381 1.933606,-4.512305 3.179827,-5.966375 3.424335,-3.995458 6.479473,-5.481347 13.16032,-6.400621 9.38545,-1.291422 16.02539,-3.363369 24.63931,-7.688529 2.29741,-1.153558 4.46255,-2.097378 4.81142,-2.097378 2.32352,0 4.1485,2.133065 5.03237,5.88191 1.14475,4.855368 -0.19723,9.754868 -3.66841,13.393187 l -1.62124,1.699308 1.45521,-0.849015 c 2.36579,-1.380279 3.19819,-1.670763 4.39962,-1.535344 1.40636,0.158516 2.5461,0.967081 3.15843,2.24068 0.70638,1.469225 0.65517,6.610662 -0.0933,9.367663 -1.01717,3.746757 -3.39275,7.630577 -6.22081,10.170347 -0.75693,0.679768 -1.07858,1.059823 -0.71477,0.844566 4.57051,-2.704316 5.7252,-3.245596 6.92367,-3.245596 2.14307,0 3.50704,1.415598 3.9544,4.104071 1.07515,6.461197 -1.99244,14.183815 -7.18443,18.086705 -1.44219,1.084113 -2.97487,2.032126 -7.7717,4.807051 l -1.29993,0.751999 z M 62.309372,34.125992 C 52.572062,33.033694 45.340702,30.091635 40.948054,25.435197 33.214896,17.237642 38.214665,6.8864055 52.079427,2.3894352 66.702304,-2.3534264 86.043051,0.3868898 93.924609,8.3183186 c 2.705089,2.7222054 3.871773,4.9556024 4.15106,7.9464244 0.328307,3.51576 -0.904715,6.465744 -3.993683,9.554825 -5.326791,5.326985 -13.813546,8.1737 -25.158031,8.438768 -2.473854,0.0578 -5.450417,-0.0018 -6.614583,-0.132344 z m 13.361457,-8.327501 c 3.223227,-0.56683 7.59375,-2.013615 9.789583,-3.240669 0.945886,-0.528571 2.330562,-1.571523 3.077058,-2.317671 2.218373,-2.217337 2.218373,-3.867133 0,-6.084471 C 86.796776,12.415798 84.448652,11.112716 80.962496,9.9519777 76.455245,8.4512591 73.924383,8.0962391 67.73333,8.0962391 c -6.191053,0 -8.721916,0.35502 -13.229166,1.8557386 -3.486156,1.1607383 -5.83428,2.4638203 -7.574975,4.2037023 -2.218373,2.217338 -2.218373,3.867134 0,6.084471 1.739693,1.738881 4.083911,3.040211 7.588677,4.21265 2.390538,0.7997 4.089746,1.154019 8.849839,1.84537 1.74727,0.253772 9.902015,-0.07743 12.303124,-0.49968 z"
       id="path1" /></g></svg>
