<?xml version="1.0" encoding="UTF-8" standalone="no"?>
<!-- Created with Inkscape (http://www.inkscape.org/) -->

<svg
   width="512"
   height="512"
   viewBox="0 0 135.46666 135.46667"
   version="1.1"
   id="svg1"
   xml:space="preserve"
   inkscape:version="1.4 (86a8ad7, 2024-10-11)"
   sodipodi:docname="icon_minion.svg"
   xmlns:inkscape="http://www.inkscape.org/namespaces/inkscape"
   xmlns:sodipodi="http://sodipodi.sourceforge.net/DTD/sodipodi-0.dtd"
   xmlns="http://www.w3.org/2000/svg"
   xmlns:svg="http://www.w3.org/2000/svg"><sodipodi:namedview
     id="namedview1"
     pagecolor="#ffffff"
     bordercolor="#000000"
     borderopacity="0.25"
     inkscape:showpageshadow="2"
     inkscape:pageopacity="0.0"
     inkscape:pagecheckerboard="0"
     inkscape:deskcolor="#d1d1d1"
     inkscape:document-units="mm"
     inkscape:zoom="1.1447461"
     inkscape:cx="396.5945"
     inkscape:cy="561.25984"
     inkscape:window-width="2560"
     inkscape:window-height="1529"
     inkscape:window-x="-8"
     inkscape:window-y="-8"
     inkscape:window-maximized="1"
     inkscape:current-layer="layer1" /><defs
     id="defs1" /><g
     inkscape:label="Layer 1"
     inkscape:groupmode="layer"
     id="layer1"><path
       style="fill:#000000"
       d="M 8.7589333,124.7292 C 4.3674682,123.54827 0.9315973,119.75591 0.24239495,115.32902 0.07490966,114.25323 0.00672233,108.78964 0.06412583,101.04499 0.15401709,88.917226 0.17686161,88.437601 0.75600946,86.518745 2.7203866,80.010295 7.6677455,75.07088 14.155208,73.141061 c 2.231893,-0.663919 2.800276,-0.7168 9.061978,-0.843111 3.766315,-0.07597 6.678013,-0.03335 6.674502,0.0977 -0.0034,0.127857 -0.239657,1.110174 -0.52496,2.182926 -0.972625,3.657114 -1.056433,5.790584 -1.050799,26.74989 0.0043,15.87269 0.08389,20.88617 0.352038,22.16579 l 0.346524,1.65365 -9.414017,-0.0174 c -7.350316,-0.0136 -9.7269519,-0.10157 -10.8415407,-0.4013 z m 29.6244557,-0.0447 c -0.498978,-0.25444 -1.153822,-0.79883 -1.455208,-1.20976 -0.544048,-0.74179 -0.547974,-0.90767 -0.547916,-23.15104 l 5.8e-5,-22.403892 0.744318,-2.116667 c 1.179498,-3.354218 2.421435,-5.330441 4.920154,-7.82916 2.507553,-2.507553 4.66269,-3.860976 7.917359,-4.972089 l 2.028468,-0.6925 H 67.73333 83.476037 l 2.028468,0.6925 c 3.254669,1.111113 5.409807,2.464536 7.917359,4.972089 2.49872,2.498719 3.740657,4.474942 4.920155,7.82916 l 0.744318,2.116667 5.8e-5,22.403892 c 5.8e-5,22.24337 -0.0039,22.40925 -0.547916,23.15104 -0.301386,0.41093 -0.95623,0.95532 -1.455209,1.20976 -0.847065,0.43193 -2.793587,0.46261 -29.34994,0.46261 -26.556353,0 -28.502876,-0.0307 -29.349941,-0.46261 z m 68.415301,-1.19022 c 0.26815,-1.27962 0.34777,-6.2931 0.35204,-22.16579 0.006,-20.959306 -0.0782,-23.092776 -1.0508,-26.74989 -0.2853,-1.072752 -0.52153,-2.055069 -0.52496,-2.182926 -0.004,-0.131055 2.90819,-0.173677 6.6745,-0.0977 6.26171,0.126311 6.83009,0.179192 9.06198,0.843111 6.48746,1.929819 11.43482,6.869234 13.3992,13.377684 0.57915,1.918856 0.60199,2.398481 0.69188,14.526245 0.0574,7.74465 -0.0108,13.20824 -0.17827,14.28403 -0.51721,3.32216 -2.90116,6.73699 -5.80753,8.31883 -2.54607,1.38574 -3.588,1.50006 -13.67228,1.50006 h -9.29228 z M 24.341665,67.174764 C 17.734633,66.433129 11.954029,61.721643 9.7697501,55.297914 9.0446952,53.165605 8.7822753,48.646929 9.2433733,46.234096 c 0.1736153,-0.908494 0.8570127,-2.774865 1.5186607,-4.147492 2.203383,-4.571043 6.428034,-8.024389 11.35964,-9.285681 4.131101,-1.056558 8.804291,-0.492348 12.630814,1.524961 2.549155,1.343892 5.777732,4.572469 7.121624,7.121624 2.717105,5.153929 2.724051,11.341596 0.01861,16.575741 -1.407767,2.723564 -4.628281,5.886525 -7.425788,7.293084 -3.34505,1.681858 -6.514991,2.263681 -10.125264,1.858431 z m 82.814575,0.01821 C 103.0917,66.780892 99.819536,65.18085 96.727102,62.093275 93.230064,58.601732 91.545829,54.586692 91.545829,49.741664 c 0,-4.816503 1.679795,-8.82048 5.160907,-12.301592 3.481114,-3.481112 7.485084,-5.160907 12.301594,-5.160907 4.81848,0 8.82984,1.680859 12.33988,5.170716 1.78636,1.776088 2.35847,2.566439 3.35642,4.636723 0.66164,1.372627 1.34504,3.238998 1.51866,4.147492 0.46109,2.412833 0.19867,6.931509 -0.52638,9.063818 -2.65888,7.81948 -10.3118,12.729328 -18.54067,11.895055 z M 66.410413,57.217271 C 57.517619,56.731652 49.516188,51.045479 46.067106,42.760412 43.850133,37.435005 43.749793,30.948809 45.798543,25.399999 48.584239,17.855256 55.916395,11.918358 64.08586,10.592631 c 10.710085,-1.7380141 21.855143,4.712902 25.582256,14.807368 1.498914,4.059639 1.882754,9.330787 0.979205,13.447116 -1.475846,6.723563 -6.287751,12.893593 -12.46295,15.980526 -3.32475,1.662016 -7.94106,2.598937 -11.773958,2.38963 z"
       id="path1" /></g></svg>
