<?xml version="1.0" encoding="UTF-8" standalone="no"?>
<!-- Created with Inkscape (http://www.inkscape.org/) -->

<svg
   width="512"
   height="512"
   viewBox="0 0 135.46666 135.46667"
   version="1.1"
   id="svg1"
   xml:space="preserve"
   inkscape:version="1.4 (86a8ad7, 2024-10-11)"
   sodipodi:docname="icon_infusion.svg"
   xmlns:inkscape="http://www.inkscape.org/namespaces/inkscape"
   xmlns:sodipodi="http://sodipodi.sourceforge.net/DTD/sodipodi-0.dtd"
   xmlns="http://www.w3.org/2000/svg"
   xmlns:svg="http://www.w3.org/2000/svg"><sodipodi:namedview
     id="namedview1"
     pagecolor="#ffffff"
     bordercolor="#000000"
     borderopacity="0.25"
     inkscape:showpageshadow="2"
     inkscape:pageopacity="0.0"
     inkscape:pagecheckerboard="0"
     inkscape:deskcolor="#d1d1d1"
     inkscape:document-units="mm"
     inkscape:zoom="1.1447461"
     inkscape:cx="396.5945"
     inkscape:cy="561.25984"
     inkscape:window-width="2560"
     inkscape:window-height="1529"
     inkscape:window-x="-8"
     inkscape:window-y="-8"
     inkscape:window-maximized="1"
     inkscape:current-layer="layer1" /><defs
     id="defs1" /><g
     inkscape:label="Layer 1"
     inkscape:groupmode="layer"
     id="layer1"><path
       style="fill:#000000"
       d="M 63.367705,122.5919 C 42.364103,121.27418 22.986585,109.96819 11.064291,92.074995 4.4490567,82.146731 0.30068056,68.943331 0.1743358,57.41458 0.13509147,53.8336 0.17158786,53.523032 0.72239351,52.750846 1.8256475,51.204171 2.7848285,50.965171 7.1333088,51.153431 28.578064,52.081848 48.186693,63.137604 60.263531,81.109365 c 7.043305,10.481271 11.174371,23.432595 11.275564,35.350075 0.03356,3.95193 -0.09788,4.36532 -1.789454,5.62826 -0.764238,0.57059 -2.782369,0.73003 -6.381936,0.5042 z m 16.108927,-5.84506 c -0.058,-9.38551 -2.007554,-18.528931 -5.91834,-27.757099 l -1.315873,-3.105027 0.69708,-1.204338 c 2.601803,-4.49511 6.700986,-9.784289 10.66332,-13.758892 11.298763,-11.333748 25.633371,-18.047523 41.873801,-19.612069 4.45757,-0.429426 7.25804,-0.268368 8.30377,0.477559 1.52848,1.090272 1.78552,2.083272 1.5906,6.144878 -1.04867,21.851602 -12.10905,41.392648 -30.2591,53.460548 -7.133913,4.74332 -14.573457,7.90182 -23.022114,9.77417 -1.344527,0.29797 -2.475621,0.54151 -2.513542,0.5412 -0.03792,-3e-4 -0.08274,-2.23272 -0.0996,-4.96093 z M 65.819226,75.195475 C 60.775543,67.928201 53.655895,60.963346 45.993012,55.800316 l -2.293445,-1.545256 0.382939,-1.661386 c 1.770568,-7.681633 4.591174,-14.759549 8.306372,-20.843676 2.041511,-3.343244 12.090536,-17.349056 12.992016,-18.107602 1.56217,-1.314479 3.692435,-1.128713 5.179282,0.45165 1.468307,1.560657 11.340746,15.668735 13.175308,18.827998 3.536164,6.089561 5.947353,12.290219 7.647401,19.666194 l 0.381671,1.655949 -2.689051,1.83575 c -4.198369,2.866123 -6.88224,5.109376 -10.921275,9.128302 -3.693476,3.675088 -7.107814,7.725077 -9.206177,10.920106 -0.595338,0.906477 -1.141963,1.645067 -1.214723,1.641312 -0.07276,-0.0038 -0.934107,-1.162138 -1.914104,-2.574182 z M 33.09553,48.909672 C 29.479396,47.344971 23.519814,45.45785 20.1615,44.814069 18.646641,44.523674 17.727082,44.223064 17.727082,44.01824 c 0,-1.529976 1.865474,-7.497019 3.315338,-10.604685 1.484567,-3.182049 1.984356,-3.513284 5.303142,-3.514651 4.441273,-0.0018 9.886247,1.301754 13.923772,3.333495 l 1.772462,0.891929 -0.905852,1.98776 c -1.325482,2.90858 -3.133159,8.058955 -3.97115,11.314472 -0.402673,1.564349 -0.803467,2.832039 -0.890652,2.817088 -0.08718,-0.01495 -1.517561,-0.61524 -3.178612,-1.333976 z M 98.301866,47.42656 C 97.463875,44.171043 95.656198,39.020668 94.330715,36.112088 l -0.905851,-1.98776 1.772461,-0.891929 c 4.037526,-2.031741 9.482495,-3.335325 13.923775,-3.333495 3.70139,0.0015 4.22945,0.506561 6.3964,6.117509 0.86735,2.245841 2.21475,7.063709 2.21966,7.936748 0.002,0.301589 -0.33192,0.481493 -1.12206,0.605062 -3.73108,0.583504 -11.31097,2.960146 -15.65042,4.907127 -0.987394,0.443014 -1.825732,0.805481 -1.862972,0.805481 -0.03724,0 -0.397169,-1.279922 -0.799842,-2.844271 z"
       id="path1" /></g></svg>
