<?xml version="1.0" encoding="UTF-8" standalone="no"?>
<!-- Created with Inkscape (http://www.inkscape.org/) -->

<svg
   width="512"
   height="512"
   viewBox="0 0 135.46666 135.46667"
   version="1.1"
   id="svg1"
   xml:space="preserve"
   inkscape:version="1.4 (86a8ad7, 2024-10-11)"
   sodipodi:docname="icon_outpost.svg"
   xmlns:inkscape="http://www.inkscape.org/namespaces/inkscape"
   xmlns:sodipodi="http://sodipodi.sourceforge.net/DTD/sodipodi-0.dtd"
   xmlns="http://www.w3.org/2000/svg"
   xmlns:svg="http://www.w3.org/2000/svg"><sodipodi:namedview
     id="namedview1"
     pagecolor="#ffffff"
     bordercolor="#000000"
     borderopacity="0.25"
     inkscape:showpageshadow="2"
     inkscape:pageopacity="0.0"
     inkscape:pagecheckerboard="0"
     inkscape:deskcolor="#d1d1d1"
     inkscape:document-units="mm"
     inkscape:zoom="1.1447461"
     inkscape:cx="396.5945"
     inkscape:cy="561.25984"
     inkscape:window-width="2560"
     inkscape:window-height="1529"
     inkscape:window-x="-8"
     inkscape:window-y="-8"
     inkscape:window-maximized="1"
     inkscape:current-layer="layer1" /><defs
     id="defs1" /><g
     inkscape:label="Layer 1"
     inkscape:groupmode="layer"
     id="layer1"><path
       style="fill:#000000"
       d="m 2.1983346,134.95157 c -0.7852567,-0.35651 -1.26794953,-0.81512 -1.65364578,-1.57115 -1.22456601,-2.40035 -0.57182248,-3.75094 3.64575678,-7.54341 15.2900534,-13.74892 32.8244354,-21.70013 53.2241344,-24.13524 4.668984,-0.55734 15.094758,-0.6271 19.579166,-0.13101 18.447113,2.04072 34.920984,8.67997 48.956084,19.73014 3.82379,3.01056 8.47538,7.34076 9.0088,8.38636 1.02737,2.01381 0.26934,4.37462 -1.69031,5.26431 -1.08036,0.49049 -2.76992,0.50347 -65.53499,0.50347 -62.7650657,0 -64.4546286,-0.013 -65.5349954,-0.50347 z M 34.131248,74.347913 V 50.006247 h 33.602082 33.60208 v 24.372524 c 0,23.085875 -0.0244,24.365549 -0.46302,24.240393 -0.25466,-0.07267 -2.363323,-0.687552 -4.685916,-1.366401 -2.322593,-0.678849 -5.894467,-1.570598 -7.9375,-1.981664 L 84.534371,94.523705 84.393483,83.575913 C 84.26124,73.299855 84.218598,72.538052 83.698508,71.160186 80.826422,63.551207 74.42506,59.162949 66.838889,59.602589 c -6.850234,0.39699 -12.345645,4.530722 -14.944965,11.24183 l -0.690857,1.783702 -0.135389,10.945602 -0.135389,10.945602 -3.628011,0.743415 c -4.070619,0.83411 -6.616113,1.495005 -10.181258,2.643393 -1.337703,0.430895 -2.558094,0.783445 -2.711979,0.783445 -0.194641,0 -0.279793,-7.408163 -0.279793,-24.341665 z m 24.925169,9.392708 0.07795,-9.789583 0.73302,-1.492649 c 0.856105,-1.743288 2.630021,-3.477981 4.379875,-4.283031 0.958147,-0.440812 1.744227,-0.569151 3.486063,-0.569151 1.741836,0 2.527915,0.128339 3.486062,0.569151 1.749854,0.80505 3.523771,2.539743 4.379876,4.283031 l 0.73302,1.492649 0.07795,9.789583 0.07796,9.789582 -2.459205,-0.173582 c -1.352563,-0.09547 -4.185611,-0.173582 -6.295663,-0.173582 -2.110052,0 -4.943101,0.07811 -6.295663,0.173582 l -2.459206,0.173582 z M 23.09774,41.285709 c -0.465878,-0.284062 -1.061191,-0.908695 -1.322917,-1.388073 -0.445019,-0.815097 -0.475866,-2.049479 -0.475866,-19.042298 0,-17.9395742 0.0069,-18.1799946 0.545515,-18.9013587 0.300033,-0.4018618 0.874311,-0.97613957 1.276173,-1.27617276 0.70745,-0.5281877 1.044574,-0.54551488 10.613728,-0.54551488 9.633676,0 9.901921,0.0140512 10.630077,0.55682365 0.410853,0.30625301 0.985131,0.96109669 1.276173,1.45520829 0.486423,0.8258182 0.535803,1.459387 0.611329,7.8436967 l 0.08216,6.9453117 h 4.4819 l 4.481899,0 0,-6.9494396 c 0,-7.8741752 0.08717,-8.2807528 2.011918,-9.38422742 1.013596,-0.58110234 1.187467,-0.59095997 10.423498,-0.59095997 13.191909,0 12.435416,-0.60682855 12.435416,9.97518739 v 6.9494396 h 4.481899 4.481899 l 0.08216,-6.9453117 c 0.07553,-6.3843097 0.124906,-7.0178785 0.61133,-7.8436967 0.291042,-0.4941116 0.865319,-1.14895528 1.276173,-1.45520829 0.728155,-0.54277245 0.996401,-0.55682365 10.63008,-0.55682365 9.56915,0 9.90627,0.0173272 10.61372,0.54551488 0.40187,0.30003319 0.97614,0.87431096 1.27618,1.27617276 0.53857,0.7213641 0.54551,0.9617845 0.54551,18.9013587 0,16.992819 -0.0308,18.227201 -0.47586,19.042298 -0.26173,0.479378 -0.85704,1.104011 -1.32292,1.388073 -0.83111,0.506755 -1.67135,0.516477 -44.63559,0.516477 -42.964243,0 -43.804485,-0.0097 -44.63559,-0.516477 z"
       id="path1" /></g></svg>
