<?xml version="1.0" encoding="UTF-8" standalone="no"?>
<!-- Created with Inkscape (http://www.inkscape.org/) -->

<svg
   width="512"
   height="512"
   viewBox="0 0 135.46666 135.46667"
   version="1.1"
   id="svg1"
   xml:space="preserve"
   inkscape:version="1.4 (86a8ad7, 2024-10-11)"
   sodipodi:docname="icon_gateway.svg"
   xmlns:inkscape="http://www.inkscape.org/namespaces/inkscape"
   xmlns:sodipodi="http://sodipodi.sourceforge.net/DTD/sodipodi-0.dtd"
   xmlns="http://www.w3.org/2000/svg"
   xmlns:svg="http://www.w3.org/2000/svg"><sodipodi:namedview
     id="namedview1"
     pagecolor="#ffffff"
     bordercolor="#000000"
     borderopacity="0.25"
     inkscape:showpageshadow="2"
     inkscape:pageopacity="0.0"
     inkscape:pagecheckerboard="0"
     inkscape:deskcolor="#d1d1d1"
     inkscape:document-units="mm"
     inkscape:zoom="1.1447461"
     inkscape:cx="396.5945"
     inkscape:cy="561.25984"
     inkscape:window-width="2560"
     inkscape:window-height="1529"
     inkscape:window-x="-8"
     inkscape:window-y="-8"
     inkscape:window-maximized="1"
     inkscape:current-layer="layer1" /><defs
     id="defs1" /><g
     inkscape:label="Layer 1"
     inkscape:groupmode="layer"
     id="layer1"><path
       style="fill:#000000"
       d="m 11.753773,134.93237 c -0.692999,-0.34303 -1.296408,-0.92155 -1.688082,-1.61844 -0.5232036,-0.93091 -0.5859579,-1.31443 -0.4429465,-2.70706 0.3384002,-3.29531 2.3576115,-6.10078 5.4267515,-7.53986 l 1.486961,-0.69722 h 8.869105 8.869105 l 1.751901,0.86245 c 2.009829,0.98944 3.449262,2.44771 4.342963,4.39981 1.489305,3.25307 0.961305,6.18971 -1.310639,7.28954 -1.088421,0.52689 -1.544438,0.54506 -13.676283,0.54486 -12.054203,-2e-4 -12.592952,-0.0213 -13.628836,-0.53408 z m 84.666662,0 c -0.692998,-0.34303 -1.296408,-0.92155 -1.688081,-1.61844 -0.523204,-0.93091 -0.585959,-1.31443 -0.442947,-2.70706 0.3384,-3.29531 2.357611,-6.10078 5.426752,-7.53986 l 1.486961,-0.69722 h 8.8691 8.86911 l 1.7519,0.86245 c 2.00983,0.98944 3.44926,2.44771 4.34296,4.39981 1.48931,3.25307 0.96131,6.18971 -1.31064,7.28954 -1.08842,0.52689 -1.54443,0.54506 -13.67628,0.54486 -12.054202,-2e-4 -12.592951,-0.0213 -13.628835,-0.53408 z M 17.462499,104.77499 v -9.524995 h 7.9375 7.937499 v 9.524995 9.525 h -7.937499 -7.9375 z m 84.666661,0 v -9.524995 h 7.9375 7.9375 v 9.524995 9.525 h -7.9375 -7.9375 z M 14.399606,86.77821 c -1.75781,-0.870119 -2.228773,-2.015176 -2.228773,-5.418839 0,-3.313394 0.448054,-4.454354 2.117735,-5.392768 0.967196,-0.543594 1.299589,-0.560357 11.111431,-0.560357 9.90835,0 10.135356,0.01177 11.142597,0.577874 1.581625,0.888923 2.086569,2.189718 2.086569,5.375251 0,3.309738 -0.524227,4.58903 -2.216106,5.408054 -1.075467,0.520625 -1.570166,0.545061 -11.03045,0.544862 -9.400598,-1.98e-4 -9.959354,-0.02737 -10.983003,-0.534077 z m 84.666662,0 c -1.75781,-0.870119 -2.228773,-2.015176 -2.228773,-5.418839 0,-3.313394 0.448054,-4.454354 2.117735,-5.392768 0.967196,-0.543594 1.29959,-0.560357 11.11143,-0.560357 9.90835,0 10.13536,0.01177 11.1426,0.577874 1.58162,0.888923 2.08657,2.189718 2.08657,5.375251 0,3.309738 -0.52423,4.58903 -2.21611,5.408054 -1.07547,0.520625 -1.57016,0.545061 -11.03045,0.544862 -9.4006,-1.98e-4 -9.95935,-0.02737 -10.983002,-0.534077 z M 17.538589,56.025518 C 17.648096,45.897658 17.725324,44.247745 18.210443,41.671873 22.463362,19.08985 40.04582,2.7543094 62.761964,0.27986639 73.339053,-0.87228354 84.921592,1.804889 94.173432,7.5402713 104.6529,14.036684 112.59322,24.518739 116.02012,36.380206 c 1.60583,5.55823 1.76854,7.23405 1.90741,19.645312 l 0.12803,11.443228 h -7.9632 -7.9632 v -8.159759 c 0,-7.259887 -0.0576,-8.385133 -0.52267,-10.203378 -0.76112,-2.975977 -1.940103,-5.017268 -4.230926,-7.325459 -2.240917,-2.257906 -4.574516,-3.567768 -7.914307,-4.442344 -2.723379,-0.713158 -2.959829,-1.014179 -3.246537,-4.133101 -0.551845,-6.003188 -3.544046,-11.121955 -8.376363,-14.329464 -6.572661,-4.362684 -15.7382,-3.861694 -21.80646,1.191945 -3.961428,3.299072 -6.391607,7.946774 -6.740544,12.891249 -0.19713,2.793359 -0.678884,3.671645 -2.249015,4.100179 -4.714591,1.286748 -6.904217,2.466952 -9.303163,5.014387 -1.957655,2.078829 -3.177813,4.290966 -3.879007,7.032608 -0.465029,1.818245 -0.52267,2.943491 -0.52267,10.203378 v 8.159759 H 25.376179 17.41486 Z"
       id="path1" /></g></svg>
