<?xml version="1.0" encoding="UTF-8" standalone="no"?>
<!-- Created with Inkscape (http://www.inkscape.org/) -->

<svg
   width="512"
   height="512"
   viewBox="0 0 135.46666 135.46667"
   version="1.1"
   id="svg1"
   xml:space="preserve"
   inkscape:version="1.4 (86a8ad7, 2024-10-11)"
   sodipodi:docname="icon_material.svg"
   xmlns:inkscape="http://www.inkscape.org/namespaces/inkscape"
   xmlns:sodipodi="http://sodipodi.sourceforge.net/DTD/sodipodi-0.dtd"
   xmlns="http://www.w3.org/2000/svg"
   xmlns:svg="http://www.w3.org/2000/svg"><sodipodi:namedview
     id="namedview1"
     pagecolor="#ffffff"
     bordercolor="#000000"
     borderopacity="0.25"
     inkscape:showpageshadow="2"
     inkscape:pageopacity="0.0"
     inkscape:pagecheckerboard="0"
     inkscape:deskcolor="#d1d1d1"
     inkscape:document-units="mm"
     inkscape:zoom="1.1447461"
     inkscape:cx="396.5945"
     inkscape:cy="561.25984"
     inkscape:window-width="2560"
     inkscape:window-height="1529"
     inkscape:window-x="-8"
     inkscape:window-y="-8"
     inkscape:window-maximized="1"
     inkscape:current-layer="layer1" /><defs
     id="defs1" /><g
     inkscape:label="Layer 1"
     inkscape:groupmode="layer"
     id="layer1"><path
       style="fill:#000000"
       d="m 26.467038,135.04309 c -2.965266,-0.79689 -5.504971,-3.13048 -6.604073,-6.0681 -0.54659,-1.46089 -0.548383,-1.60736 -0.548383,-44.797918 V 40.844834 l 0.781986,-0.74919 c 0.746094,-0.714804 0.852351,-0.739007 2.315104,-0.527335 0.843215,0.12202 2.426087,0.222872 3.517493,0.224117 1.628009,0.0019 2.224968,-0.12246 3.324081,-0.692237 1.598756,-0.828791 3.140732,-2.462513 3.910152,-4.142805 0.777553,-1.698049 0.777553,-4.716723 0,-6.414772 -1.728439,-3.774633 -5.751469,-5.678047 -9.779353,-4.6269 -1.241703,0.324044 -1.808074,0.356642 -2.429938,0.13986 -1.594317,-0.555782 -1.639525,-0.799059 -1.639525,-8.822797 0,-6.7125765 0.04242,-7.3888148 0.548383,-8.7411101 C 20.953797,3.5761554 23.414016,1.3051328 26.440208,0.4202263 27.514814,0.10599455 29.063174,0 32.57884,0 l 4.701547,0 1.798868,2.5671606 c 4.546539,6.4883559 8.453389,13.6276524 10.540211,19.2609634 3.779537,10.202742 3.807948,19.64585 0.08773,29.160938 -1.280148,3.274198 -2.974537,6.632683 -7.112802,14.098435 -7.355188,13.269329 -9.622707,20.004751 -10.599751,31.485415 -1.024631,12.039838 2.137681,26.112908 8.165595,36.338928 0.758637,1.28699 1.37934,2.38832 1.37934,2.4474 0,0.0591 -3.065859,0.0996 -6.81302,0.09 -5.114263,-0.0131 -7.173691,-0.11434 -8.259523,-0.40616 z m 23.772709,-1.23968 c -7.56374,-10.23044 -11.375259,-23.86058 -10.30012,-36.833623 0.541714,-6.536525 1.825471,-11.707661 4.43367,-17.859374 1.276081,-3.009774 2.250578,-4.891233 6.89896,-13.319819 C 57.416115,54.650368 59.583066,48.527862 60.323692,40.216665 61.144035,31.010888 58.690576,20.858431 53.059494,10.157292 51.591443,7.3674527 49.050238,3.0442747 47.516635,0.72760413 L 47.034971,0 l 8.449911,0 8.44991,0 1.114339,1.9476124 c 1.635254,2.8580555 4.029438,8.2773726 5.409354,12.2442596 4.613992,13.263981 5.226441,26.262732 1.783448,37.852285 -0.858165,2.88869 -2.142292,5.956745 -5.957591,14.233965 -3.17078,6.878949 -6.113161,14.251009 -7.508626,18.812671 -6.167067,20.159647 -2.50141,32.936587 10.885529,37.942377 5.500856,2.05695 14.723841,2.38454 22.901653,0.81346 l 2.422514,-0.4654 v 2.06404 c 0,4.68191 -2.859246,8.46297 -7.268101,9.61133 -1.345517,0.35046 -4.094597,0.40927 -18.915091,0.40465 l -17.340764,-0.005 z m 26.704776,-17.1428 c -6.938152,-1.01778 -10.909471,-3.98082 -12.561247,-9.37207 -0.775952,-2.53264 -0.652786,-8.782314 0.258798,-13.131946 1.468387,-7.006426 4.127355,-14.270759 9.526455,-26.026389 5.06407,-11.026158 6.129534,-14.051398 7.361537,-20.902082 0.549456,-3.055304 0.618814,-4.252483 0.620809,-10.715625 0.0024,-7.738283 -0.185104,-9.603218 -1.609306,-16.007291 C 79.287111,14.864407 76.523424,7.0156724 74.043327,2.0505207 L 73.01909,0 h 6.701806 c 5.343074,0 6.993161,0.08519714 8.13889,0.4202263 3.026192,0.8849065 5.486411,3.1559291 6.577243,6.0714386 0.526498,1.4071936 0.548383,1.9668321 0.548383,14.0234671 0,6.906781 0.08558,12.557783 0.190179,12.557783 0.104599,0 2.581772,-2.38125 5.504829,-5.291666 4.99379,-4.972198 5.37388,-5.291667 6.2957,-5.291667 0.53958,0 1.22595,0.148828 1.52526,0.330729 0.65376,0.397307 6.19357,9.517145 6.93813,11.421804 0.36738,0.939795 0.56264,2.22016 0.64886,4.254758 0.11148,2.630984 0.0565,3.109266 -0.57299,4.98153 -0.38297,1.139113 -1.12538,2.746456 -1.6498,3.571875 -0.56493,0.889173 -4.60623,5.171555 -9.91683,10.508429 l -8.963338,9.007668 v 13.700704 13.700705 l -0.805894,0.805893 c -0.733215,0.733215 -0.918137,0.792125 -2.05052,0.653223 -0.684545,-0.08397 -1.811541,-0.273845 -2.504434,-0.421947 -3.707437,-0.792443 -7.836912,1.820705 -9.069418,5.739167 -1.128053,3.58637 0.724579,7.84936 4.184689,9.62917 1.448892,0.74527 4.581796,0.94676 6.321035,0.40651 1.518065,-0.47154 2.386793,-0.32665 3.256611,0.54317 0.571813,0.57182 0.667931,0.9061 0.667931,2.32296 v 1.65503 l -2.976563,0.55505 c -5.689362,1.06093 -11.281053,1.35958 -15.064326,0.8046 z"
       id="path1" /></g></svg>
